<svg width="789" height="902" viewBox="0 0 789 902" fill="none" xmlns="http://www.w3.org/2000/svg">
<g filter="url(#filter0_f_39_2201)">
<path d="M321.632 140.102C390.782 186.402 474.519 206.472 557.893 201.315C585.75 199.59 613.985 203.959 638.755 219.332C727.928 274.731 680.738 420.971 632.562 490.921C584.387 560.871 670.571 656.87 635.059 759.52C599.548 862.171 440.025 747.021 359.345 743.129C312.746 740.879 262.994 793.649 125.087 755.562C-12.8193 717.474 -94.8635 627.618 31.9889 456.052C158.858 284.486 90.3314 122.299 218.974 100.898C256.572 94.6406 295.368 122.512 321.632 140.102Z" fill="url(#paint0_linear_39_2201)" fill-opacity="0.4"/>
</g>
<defs>
<filter id="filter0_f_39_2201" x="-131" y="0" width="920" height="902" filterUnits="userSpaceOnUse" color-interpolation-filters="sRGB">
<feFlood flood-opacity="0" result="BackgroundImageFix"/>
<feBlend mode="normal" in="SourceGraphic" in2="BackgroundImageFix" result="shape"/>
<feGaussianBlur stdDeviation="50" result="effect1_foregroundBlur_39_2201"/>
</filter>
<linearGradient id="paint0_linear_39_2201" x1="329" y1="100" x2="329" y2="802" gradientUnits="userSpaceOnUse">
<stop stop-color="#EEBA9C"/>
<stop offset="1" stop-color="#F5D5C3" stop-opacity="0"/>
</linearGradient>
</defs>
</svg>
